<svg width="77" height="55" viewBox="0 0 77 55" fill="none" xmlns="http://www.w3.org/2000/svg">
<path d="M19.5332 54.1963C16.1836 54.1963 13.3467 53.695 11.0225 52.6924C3.86751 49.5934 0.290039 42.3132 0.290039 30.8516C0.290039 26.7956 0.757161 22.9674 1.69141 19.3672C3.12695 13.8529 5.59928 9.39811 9.1084 6.00293C13.0505 2.1748 18.0977 0.260742 24.25 0.260742C26.6198 0.260742 28.6706 0.591146 30.4023 1.25195C33.5924 2.48242 35.9395 4.56738 37.4434 7.50684C38.5371 9.62598 39.084 11.8363 39.084 14.1377C39.084 16.1201 38.7194 17.8063 37.9902 19.1963C37.4206 20.2445 36.7484 20.7686 35.9736 20.7686C34.8115 20.7686 34.071 20.0622 33.752 18.6494C32.9316 15.1631 31.8721 12.6224 30.5732 11.0273C29.2972 9.40951 27.7021 8.60059 25.7881 8.60059C24.1475 8.60059 22.6663 9.4209 21.3447 11.0615C20.0231 12.6794 18.9066 14.9352 17.9951 17.8291C17.1064 20.723 16.4912 24.1068 16.1494 27.9805C16.0811 28.8919 16.0469 29.9287 16.0469 31.0908C16.0469 33.2555 16.138 35.0329 16.3203 36.4229C17.1178 42.7119 19.18 45.8564 22.5068 45.8564C24.4437 45.8564 26.1868 45.0589 27.7363 43.4639C29.3086 41.846 30.8011 39.3053 32.2139 35.8418C32.8063 34.4062 33.6836 33.6885 34.8457 33.6885C35.6204 33.6885 36.1901 34.2126 36.5547 35.2607C36.8281 36.0583 36.9648 37.0039 36.9648 38.0977C36.9648 39.9889 36.5319 41.9486 35.666 43.9766C34.9368 45.6855 33.8773 47.3148 32.4873 48.8643C29.2516 52.4189 24.9336 54.1963 19.5332 54.1963ZM57.541 45.6172C58.3158 45.0475 58.7031 44.2842 58.7031 43.3271C58.7031 42.0511 58.2018 40.7979 57.1992 39.5674C56.2194 38.3369 54.8636 37.0267 53.1318 35.6367C51.4001 34.2467 49.6911 32.6859 48.0049 30.9541C44.4046 27.2627 42.6045 23.1497 42.6045 18.6152C42.6045 17.8405 42.6615 17.0316 42.7754 16.1885C43.2767 11.9046 44.9401 8.31576 47.7656 5.42188C51.1152 1.98112 55.6611 0.260742 61.4033 0.260742C63.7731 0.260742 65.8239 0.591146 67.5557 1.25195C70.7686 2.48242 73.127 4.55599 74.6309 7.47266C75.7018 9.5918 76.2373 11.8477 76.2373 14.2402C76.2373 16.1543 75.8727 17.8063 75.1436 19.1963C74.5739 20.2445 73.9131 20.7686 73.1611 20.7686C71.9762 20.7686 71.2243 20.0622 70.9053 18.6494C70.085 15.1631 69.0368 12.6224 67.7607 11.0273C66.4847 9.40951 64.8783 8.60059 62.9414 8.60059C61.4831 8.60059 60.2982 9.19303 59.3867 10.3779C58.3158 11.7907 57.7803 13.6706 57.7803 16.0176C57.7803 18.2734 58.498 20.2673 59.9336 21.999C61.3691 23.7308 63.1465 25.4284 65.2656 27.0918C66.8151 28.2995 68.2734 29.5869 69.6406 30.9541C72.4434 33.6885 73.8447 36.7419 73.8447 40.1143C73.8447 44.193 72.4775 47.4857 69.7432 49.9922C66.3936 53.1367 61.8477 54.709 56.1055 54.709C53.7357 54.709 51.6849 54.4128 49.9531 53.8203C46.7402 52.681 44.3818 50.7897 42.8779 48.1465C41.807 46.2096 41.2715 44.1475 41.2715 41.96C41.2715 40.2282 41.6361 38.7243 42.3652 37.4482C42.9349 36.4912 43.5957 36.0127 44.3477 36.0127C45.5326 36.0127 46.2845 36.6621 46.6035 37.9609C47.4238 41.1283 48.415 43.3385 49.5771 44.5918C50.7393 45.8223 52.2887 46.4375 54.2256 46.4375C55.6839 46.4375 56.7891 46.1641 57.541 45.6172Z" fill="#E636A5"/>
</svg>
